<svg width="16" height="16" viewBox="0 0 16 16" fill="none" xmlns="http://www.w3.org/2000/svg">
<g clip-path="url(#clip0_1317_2925)">
<path d="M4.59502 12.1876C4.63315 12.1874 4.67127 12.1873 4.71056 12.1872C4.75277 12.1872 4.79498 12.1873 4.83719 12.1873C4.88211 12.1872 4.92703 12.1871 4.97195 12.187C5.0954 12.1867 5.21886 12.1867 5.34231 12.1867C5.47545 12.1866 5.60859 12.1864 5.74173 12.1862C6.03286 12.1857 6.32399 12.1856 6.61512 12.1854C6.79691 12.1853 6.97869 12.1852 7.16048 12.1851C7.66382 12.1847 8.16716 12.1844 8.67051 12.1842C8.70272 12.1842 8.73493 12.1842 8.76812 12.1842C8.8004 12.1842 8.83269 12.1842 8.86596 12.1842C8.93139 12.1842 8.99681 12.1842 9.06224 12.1842C9.09469 12.1842 9.12715 12.1841 9.16059 12.1841C9.6865 12.184 10.2124 12.1835 10.7383 12.1827C11.2783 12.182 11.8183 12.1816 12.3583 12.1816C12.6614 12.1815 12.9646 12.1814 13.2677 12.1808C13.5259 12.1803 13.784 12.1802 14.0422 12.1804C14.1738 12.1805 14.3055 12.1805 14.4372 12.1801C14.5578 12.1797 14.6785 12.1797 14.7991 12.1801C14.8427 12.1802 14.8862 12.1801 14.9298 12.1798C15.2576 12.1779 15.5664 12.2023 15.8125 12.4417C16.0069 12.699 16.0224 12.9395 16 13.2542C15.9489 13.4739 15.7743 13.6297 15.5937 13.7542C15.4618 13.8062 15.3517 13.8245 15.2103 13.8248C15.1714 13.825 15.1324 13.8252 15.0923 13.8255C15.0494 13.8254 15.0064 13.8253 14.9635 13.8252C14.9176 13.8254 14.8718 13.8255 14.826 13.8257C14.7002 13.8262 14.5743 13.8262 14.4485 13.8262C14.3128 13.8263 14.177 13.8267 14.0413 13.827C13.7446 13.8277 13.4478 13.828 13.1511 13.8282C12.9657 13.8283 12.7804 13.8285 12.5951 13.8287C12.0819 13.8293 11.5687 13.8298 11.0555 13.8299C11.0226 13.8299 10.9898 13.8299 10.956 13.8299C10.8894 13.8299 10.8229 13.8299 10.7563 13.83C10.7232 13.83 10.6902 13.83 10.6562 13.83C10.6065 13.83 10.6065 13.83 10.5559 13.83C10.0198 13.8301 9.48372 13.8309 8.94762 13.8321C8.39709 13.8333 7.84656 13.8339 7.29602 13.8339C6.98697 13.8339 6.67792 13.8342 6.36886 13.8351C6.10571 13.8359 5.84257 13.8361 5.57942 13.8356C5.4452 13.8354 5.311 13.8354 5.17678 13.8361C5.05379 13.8368 4.93082 13.8367 4.80783 13.836C4.76345 13.8359 4.71908 13.8361 4.67471 13.8365C4.37904 13.8393 4.13759 13.8095 3.90934 13.608C3.74569 13.4406 3.68488 13.234 3.67383 13.0042C3.68233 12.7657 3.78718 12.5689 3.94666 12.3949C4.1347 12.2292 4.35057 12.1879 4.59502 12.1876Z" fill="black"/>
<path d="M4.74058 2.17272C4.78659 2.17258 4.83259 2.17238 4.87859 2.17211C5.00431 2.17158 5.13001 2.17202 5.25573 2.17263C5.39158 2.17311 5.52742 2.17269 5.66326 2.17239C5.92908 2.17193 6.19489 2.17231 6.4607 2.17298C6.77032 2.17373 7.07994 2.17368 7.38956 2.1736C7.94198 2.17348 8.49439 2.17413 9.0468 2.1752C9.58276 2.17623 10.1187 2.17668 10.6547 2.17648C11.2385 2.17627 11.8224 2.17635 12.4063 2.17696C12.4371 2.17699 12.468 2.17703 12.4998 2.17706C12.5618 2.17713 12.6238 2.17719 12.6858 2.17726C12.9016 2.17747 13.1174 2.17749 13.3332 2.17745C13.5962 2.1774 13.8591 2.17771 14.122 2.17845C14.2562 2.17882 14.3903 2.17904 14.5245 2.17886C14.6473 2.1787 14.7701 2.17897 14.8929 2.17959C14.9373 2.17973 14.9817 2.17972 15.0261 2.17954C15.361 2.1783 15.5702 2.21055 15.8196 2.44446C16.0078 2.64568 16.0206 2.84015 16.0131 3.11181C15.9972 3.25681 15.9601 3.35576 15.8759 3.47339C15.8585 3.5011 15.8411 3.52882 15.8231 3.55737C15.6246 3.75595 15.3995 3.82092 15.1247 3.82124C15.0866 3.82136 15.0485 3.82148 15.0092 3.82161C14.967 3.82158 14.9248 3.82156 14.8826 3.82153C14.8377 3.82161 14.7928 3.8217 14.748 3.82181C14.6246 3.82206 14.5012 3.82212 14.3778 3.82214C14.2447 3.8222 14.1116 3.82243 13.9785 3.82264C13.6875 3.82307 13.3965 3.82326 13.1055 3.82339C12.9238 3.82348 12.7421 3.82361 12.5604 3.82375C12.0572 3.82413 11.5539 3.82446 11.0507 3.82456C11.0185 3.82457 10.9863 3.82457 10.9532 3.82458C10.9047 3.82459 10.9047 3.82459 10.8553 3.8246C10.7899 3.82462 10.7245 3.82463 10.6591 3.82464C10.6267 3.82465 10.5942 3.82466 10.5608 3.82467C10.0351 3.82479 9.5094 3.82533 8.98371 3.82606C8.44391 3.8268 7.90412 3.82719 7.36432 3.82723C7.06127 3.82726 6.75823 3.82744 6.45519 3.828C6.19713 3.82849 5.93907 3.82865 5.68101 3.82839C5.54939 3.82827 5.41777 3.82829 5.28615 3.82873C5.16553 3.82913 5.04492 3.82909 4.92431 3.82871C4.88079 3.82865 4.83728 3.82875 4.79377 3.82902C4.45104 3.83104 4.15416 3.81051 3.89748 3.56628C3.73815 3.38045 3.67828 3.17352 3.68179 2.93249C3.7005 2.69367 3.79026 2.50674 3.96963 2.34839C4.21487 2.17866 4.45062 2.16994 4.74058 2.17272Z" fill="black"/>
<path d="M4.79787 7.17263C4.84346 7.17251 4.88905 7.17233 4.93465 7.17211C5.05923 7.17165 5.18381 7.17196 5.3084 7.17241C5.44303 7.17276 5.57766 7.17239 5.71229 7.1721C5.97573 7.17167 6.23917 7.1719 6.50262 7.17238C6.80951 7.1729 7.11641 7.1728 7.4233 7.17269C7.9709 7.1725 8.51849 7.17294 9.06608 7.17371C9.59728 7.17446 10.1285 7.17468 10.6597 7.17436C11.2384 7.174 11.8171 7.17394 12.3958 7.17439C12.4576 7.17444 12.5193 7.17449 12.581 7.17453C12.6114 7.17456 12.6417 7.17458 12.673 7.1746C12.8869 7.17475 13.1007 7.17469 13.3146 7.17456C13.5752 7.17441 13.8358 7.1746 14.0965 7.17521C14.2294 7.17552 14.3623 7.17568 14.4953 7.17544C14.617 7.17522 14.7388 7.17543 14.8605 7.17599C14.9045 7.17611 14.9485 7.17608 14.9925 7.17588C15.3252 7.17446 15.5698 7.20222 15.8193 7.43842C15.996 7.63825 16.0218 7.85048 16.0133 8.112C15.9824 8.35091 15.8736 8.52644 15.6912 8.68036C15.4417 8.82678 15.2104 8.82673 14.9277 8.82541C14.8822 8.82554 14.8367 8.82571 14.7912 8.82592C14.6666 8.82637 14.542 8.82624 14.4174 8.82601C14.2828 8.82586 14.1483 8.82625 14.0137 8.82657C13.7503 8.82711 13.4869 8.82713 13.2234 8.82697C13.0093 8.82684 12.7951 8.82689 12.581 8.82706C12.5505 8.82708 12.52 8.8271 12.4886 8.82713C12.4267 8.82718 12.3647 8.82722 12.3028 8.82727C11.722 8.8277 11.1412 8.82753 10.5604 8.82717C10.0292 8.82686 9.49811 8.82727 8.96696 8.82801C8.42137 8.82878 7.87578 8.82908 7.33018 8.82887C7.02396 8.82876 6.71774 8.82883 6.41152 8.82938C6.15083 8.82984 5.89015 8.82986 5.62946 8.82931C5.49651 8.82905 5.36357 8.82898 5.23061 8.82946C5.10878 8.82989 4.98697 8.82974 4.86514 8.82914C4.82119 8.82902 4.77724 8.82911 4.73329 8.82944C4.41896 8.83161 4.15351 8.80311 3.90959 8.59064C3.74002 8.40264 3.66282 8.1751 3.67509 7.92304C3.7138 7.66642 3.82341 7.46918 4.03068 7.31329C4.27708 7.17386 4.52127 7.17058 4.79787 7.17263Z" fill="black"/>
<path d="M1.71925 7.1111C1.97987 7.32044 2.13014 7.55752 2.16676 7.89198C2.17828 8.2216 2.11585 8.47547 1.90504 8.73219C1.68848 8.95736 1.4062 9.09555 1.09254 9.10719C0.805161 9.1024 0.527804 9.00475 0.309334 8.81801C0.0526191 8.54525 -0.0200648 8.24199 -0.0109781 7.87819C0.0120486 7.5846 0.150749 7.32945 0.373787 7.13734C0.781518 6.84101 1.30137 6.82688 1.71925 7.1111Z" fill="black"/>
<path d="M1.70105 2.13521C1.91801 2.28817 2.03513 2.48187 2.13562 2.72396C2.19752 3.08914 2.15782 3.41163 1.94812 3.72201C1.78084 3.92782 1.56925 4.06229 1.3114 4.12044C0.925305 4.15429 0.636492 4.11843 0.332887 3.86654C0.143547 3.68672 0.00865469 3.45774 -0.0085435 3.19356C-0.0183712 2.80888 0.0263359 2.5368 0.300294 2.24691C0.705861 1.89448 1.24222 1.86151 1.70105 2.13521Z" fill="black"/>
<path d="M1.53003 11.9335C1.81229 12.0873 2.00215 12.3019 2.12036 12.6007C2.20955 12.9072 2.17526 13.2169 2.03051 13.4991C1.87611 13.7583 1.67174 13.8949 1.3977 14.0108C1.02068 14.0736 0.713461 14.0375 0.397701 13.8194C0.208113 13.667 0.0437437 13.4616 -0.000735964 13.2178C-0.0325971 12.8217 -0.0084483 12.5239 0.25317 12.2081C0.569584 11.8749 1.09802 11.7563 1.53003 11.9335Z" fill="black"/>
</g>
<defs>
<clipPath id="clip0_1317_2925">
<rect width="16" height="16" fill="white"/>
</clipPath>
</defs>
</svg>
